<svg width="120" height="43" viewBox="0 0 120 43" fill="none" xmlns="http://www.w3.org/2000/svg">
<path d="M36.0322 21.4741C36.0322 23.0483 34.756 24.3244 33.1818 24.3244C31.6077 24.3244 30.3315 23.0483 30.3315 21.4741C30.3315 19.8999 31.6077 18.6238 33.1818 18.6238C34.756 18.6238 36.0322 19.8999 36.0322 21.4741Z" fill="#E0EEEE" stroke="#E0EEEE" stroke-width="0.06928"/>
<path d="M61.2531 23.7785L64.2724 28.34L63.5554 28.3363L60.3635 23.3604L60.216 23.1303H59.9427H57.3305H56.8305V23.6303V28.3349H56.2002V16.2363H60.9629C62.0537 16.2363 62.9506 16.5857 63.5706 17.1711C64.1875 17.7536 64.5676 18.6043 64.5676 19.6842C64.5676 20.7465 64.2093 21.5329 63.6818 22.0715C63.1489 22.6155 62.4155 22.9348 61.6261 23.0044L60.7897 23.0782L61.2531 23.7785ZM57.3313 22.7067H60.2678V22.7084H60.7678C61.6574 22.7084 62.4403 22.408 63.0035 21.8625C63.5677 21.3162 63.88 20.5541 63.88 19.6933C63.88 18.8321 63.5676 18.0741 63.0017 17.5324C62.4375 16.9923 61.6549 16.6989 60.7678 16.6989H57.3313H56.8313V17.1989V22.2067V22.7067H57.3313ZM74.0898 20.9231C74.7575 21.7062 75.148 22.8086 75.1722 24.0832H67.9952H67.4611L67.4963 24.6162C67.6289 26.6251 69.0688 28.362 71.4126 28.362C72.4234 28.362 73.4535 28.0247 74.26 27.4018L74.3761 27.5599C73.6408 28.1627 72.7082 28.5175 71.5849 28.5723H71.274C69.9931 28.5723 68.9177 28.115 68.1626 27.3443C67.4071 26.5733 66.943 25.4585 66.943 24.0918C66.943 21.5804 68.7191 19.623 71.1163 19.623C72.409 19.623 73.4074 20.1226 74.0898 20.9231ZM74.2216 24.0017H74.7287L74.7215 23.4946C74.7102 22.6889 74.4382 21.784 73.8482 21.0711C73.2464 20.3442 72.3303 19.8391 71.0989 19.8391C68.7125 19.8391 67.5841 21.8659 67.4968 23.4745L67.4682 24.0017H67.9961H74.2216ZM84.9558 28.3434L84.4841 28.3429V27.7632V27.0032V26.841V26.4696V25.4505V25.0539V24.8916V24.1101V22.4018C84.4841 21.616 84.163 20.9697 83.6133 20.5309C83.076 20.1018 82.3575 19.8988 81.5877 19.8988C80.5022 19.8988 79.5834 20.2383 78.7635 20.942L78.6421 20.7617C79.5018 19.9924 80.5067 19.6222 81.7836 19.6222C82.7204 19.6222 83.5162 19.8349 84.0664 20.2578C84.5957 20.6647 84.9558 21.3102 84.9558 22.3238V28.3434ZM81.3718 28.5189C81.4552 28.5189 81.5387 28.5166 81.6222 28.5121C81.3741 28.5564 81.1136 28.5789 80.8414 28.5789C79.4203 28.5789 78.0211 27.6438 78.0211 25.9363C78.0211 25.0254 78.3816 24.3867 78.8944 23.9662C79.4201 23.5352 80.1328 23.3135 80.8414 23.3135C81.1453 23.3135 81.4324 23.338 81.7022 23.3871C81.5922 23.3791 81.4819 23.3752 81.3718 23.3752C80.5803 23.3752 79.8718 23.6248 79.3547 24.0864C78.8337 24.5515 78.5344 25.2086 78.5344 25.957C78.5344 27.4868 79.7795 28.5189 81.3718 28.5189ZM100.513 28.5797H100.412C99.87 28.5616 99.5236 28.3962 99.3059 28.1618C99.0691 27.9068 98.9116 27.492 98.9116 26.8618V20.6553V20.1553H98.4116H97.3402V19.8588H98.4116H98.9116V19.3588V17.2664H99.3849V19.3588V19.8588H99.8849H101.311V20.1545H99.8849H99.3849V20.6545V26.5464C99.3849 26.965 99.477 27.3871 99.7216 27.7178C99.9812 28.0688 100.375 28.2641 100.848 28.2641C101.112 28.2641 101.373 28.2111 101.606 28.1181L101.68 28.3064C101.418 28.4663 101.057 28.5797 100.513 28.5797ZM95.1207 20.9524C94.4532 20.2555 93.6217 19.9395 92.665 19.9395C91.5166 19.9395 90.5569 20.3846 89.8904 21.1493C89.2299 21.9071 88.8862 22.9441 88.8862 24.0918C88.8862 25.2393 89.2295 26.2805 89.8888 27.0429C90.5543 27.8124 91.5141 28.2641 92.665 28.2641C93.6209 28.2641 94.4477 27.9307 95.1156 27.2465L95.3619 27.4731C94.7877 28.0806 94.0238 28.515 92.8511 28.5731H92.5778C90.0591 28.5731 88.3447 26.679 88.3447 24.0927C88.3447 21.5264 90.0589 19.6239 92.5778 19.6239C93.9075 19.6239 94.7451 20.0767 95.3622 20.7303L95.1207 20.9524Z" fill="#E0EEEE" stroke="#E0EEEE"/>
<path fill-rule="evenodd" clip-rule="evenodd" d="M33.1821 15.6062C37.0556 15.6062 40.6539 16.162 43.367 17.096C46.636 18.2215 48.6459 19.9273 48.6459 21.472C48.6459 23.0816 46.5158 24.8938 43.0054 26.0569C40.3514 26.9362 36.859 27.3952 33.1821 27.3952C29.4122 27.3952 25.8424 26.9644 23.1585 26.0472C19.763 24.8866 17.7178 23.0509 17.7178 21.472C17.7178 19.9398 19.6368 18.2472 22.8598 17.1235C25.5831 16.174 29.2703 15.6062 33.1816 15.6062H33.1821Z" stroke="#E0EEEE"/>
<path fill-rule="evenodd" clip-rule="evenodd" d="M28.0752 18.5583C30.0104 15.2029 32.2894 12.3634 34.454 10.4797C37.0619 8.21009 39.5438 7.32126 40.8818 8.09284C42.2762 8.89696 42.782 11.6476 42.0358 15.2695C41.4722 18.0079 40.1246 21.2625 38.2877 24.4477C36.4043 27.7134 34.2478 30.5906 32.1127 32.4569C29.411 34.8186 26.799 35.6733 25.4312 34.8844C24.104 34.1196 23.5964 31.6111 24.2331 28.2577C24.7711 25.4243 26.1212 21.9465 28.0746 18.5583L28.0752 18.5583Z" stroke="#E0EEEE"/>
<path fill-rule="evenodd" clip-rule="evenodd" d="M28.0808 24.4533C26.1402 21.1016 24.819 17.7084 24.2675 14.8924C23.6036 11.4995 24.073 8.9053 25.4098 8.13148C26.8029 7.325 29.4385 8.26053 32.2037 10.7159C34.2945 12.5722 36.4413 15.3646 38.2836 18.5468C40.1724 21.8094 41.588 25.1147 42.1386 27.8965C42.8355 31.4167 42.2715 34.1064 40.9049 34.8974C39.579 35.665 37.1526 34.8524 34.5653 32.6259C32.3793 30.7448 30.0405 27.8382 28.0808 24.4532V24.4533Z" stroke="#E0EEEE"/>
</svg>
